<svg version="1.1" id="Layer_1" xmlns="http://www.w3.org/2000/svg" xmlns:xlink="http://www.w3.org/1999/xlink" x="0px" y="0px"
	 width="100%" viewBox="0 0 550 418" enable-background="new 0 0 550 418" xml:space="preserve">
<path fill="#000000" opacity="1.000000" stroke="none" 
	d="
M1.000000,3.000000 
	C1.332937,2.333333 1.547183,1.216295 2.022781,1.090956 
	C3.113248,0.803574 4.331218,1.000000 5.497422,1.000000 
	C187.258652,1.000000 369.019897,1.000000 550.890564,1.000000 
	C550.890564,140.333282 550.890564,279.666626 550.887695,419.000000 
	C511.567230,419.000000 472.249664,419.000000 432.361938,418.619507 
	C430.542786,414.086792 429.293701,409.934601 428.049927,405.569916 
	C428.055237,405.357452 427.894775,404.963806 427.941406,404.582703 
	C427.336548,402.411407 426.685028,400.621216 426.032654,398.445740 
	C425.618530,396.344086 425.205261,394.627747 424.785339,392.671509 
	C424.577576,392.171814 424.324280,391.981506 424.027985,391.627502 
	C424.037231,391.394287 423.879089,390.955078 423.931091,390.558228 
	C421.680267,383.727631 419.377441,377.293854 417.081116,370.909698 
	C417.087585,370.959290 417.185913,370.941010 417.105072,370.573242 
	C416.020447,368.118530 415.016693,366.031555 413.886353,363.615662 
	C410.792114,357.182617 407.824402,351.078461 404.866394,344.711060 
	C404.602936,344.237915 404.329712,344.028107 404.033264,343.607147 
	C404.009979,343.396027 403.870697,342.994690 403.815247,342.652405 
	C393.343048,325.332886 381.756897,309.374603 364.897736,297.573120 
	C356.544800,292.493073 348.341736,287.720062 339.956451,282.623383 
	C328.844727,278.243225 317.915222,274.186707 306.660645,270.061951 
	C305.896667,270.037750 305.457794,270.081757 304.802307,270.058960 
	C304.585724,269.992126 304.133820,269.956329 304.019775,269.711578 
	C303.589386,269.378967 303.273010,269.291107 302.725800,269.128204 
	C302.494965,269.053192 302.014160,268.985962 301.902710,268.673645 
	C301.475891,267.569885 301.160522,266.778381 300.906189,265.652893 
	C300.584137,264.535187 300.201019,263.751556 299.893860,262.575745 
	C299.322174,260.066986 298.674561,257.950439 298.013214,255.620010 
	C297.999481,255.406158 297.840179,255.008270 297.907043,254.685242 
	C297.661896,253.861908 297.349854,253.361572 297.020020,252.636292 
	C297.002258,252.411331 296.844635,251.988449 296.911560,251.666870 
	C296.663483,250.846161 296.348480,250.347031 296.020203,249.629013 
	C296.006958,249.410126 295.860870,248.996597 295.894440,248.721436 
	C295.629333,248.245438 295.330658,248.044586 295.019226,247.629547 
	C295.006470,247.415344 294.850220,247.015625 294.912415,246.669830 
	C294.333405,245.180130 293.692169,244.036194 293.040161,242.942993 
	C293.029327,242.993713 293.131104,243.013657 293.067139,242.689697 
	C292.679199,241.864685 292.355225,241.363632 292.023163,240.498474 
	C285.396057,229.739868 278.777008,219.345383 272.059113,208.682800 
	C271.647064,208.209732 271.333893,208.004730 270.970459,207.584625 
	C270.747284,207.090271 270.496918,206.959763 270.056763,206.716217 
	C269.635986,206.244537 269.327454,206.034592 268.974670,205.604095 
	C268.758575,205.095535 268.505219,204.960434 268.055969,204.715088 
	C267.621521,204.259323 267.301483,204.066681 266.983917,203.944656 
	C266.986420,204.015274 267.127686,204.011551 267.035583,203.737396 
	C266.624023,203.265732 266.304596,203.068207 265.986267,202.941467 
	C265.987427,203.012253 266.128998,203.011063 266.037018,202.736618 
	C265.625305,202.264435 265.305573,202.066681 264.986694,201.940323 
	C264.987579,202.011719 265.130402,202.011047 265.037903,201.736664 
	C264.625580,201.264618 264.305695,201.066956 263.986816,200.940552 
	C263.987823,201.011795 264.130310,201.010880 264.037659,200.736908 
	C263.625214,200.266434 263.305420,200.069931 262.986206,199.942963 
	C262.986786,200.012482 263.125824,200.012482 263.033447,199.739304 
	C262.622162,199.270248 262.303284,199.074371 261.984955,198.945984 
	C261.985504,199.013474 262.120514,199.013611 262.029480,198.740112 
	C261.620636,198.268005 261.302795,198.069412 260.984558,197.941605 
	C260.984161,198.012405 261.125763,198.014450 261.036957,197.739761 
	C260.638000,197.250656 260.327850,197.036240 259.973877,196.602325 
	C259.759186,196.095718 259.506989,195.961746 259.057556,195.717560 
	C258.621735,195.259247 258.301819,195.064270 257.984924,194.941589 
	C257.987976,195.013916 258.132660,195.008972 258.051453,194.731720 
	C257.655121,194.248474 257.339935,194.042450 257.036072,193.883804 
	C257.047394,193.931168 257.140778,193.903488 257.006836,193.612061 
	C256.264069,193.269928 255.655212,193.219254 254.725235,193.034668 
	C247.921585,188.093201 241.697754,182.876404 234.894867,178.575531 
	C225.106430,172.387177 214.896744,166.865143 204.848114,160.692276 
	C202.239120,159.168945 199.648849,158.012054 197.057190,156.894348 
	C197.055817,156.933502 197.134155,156.930786 196.971130,156.613754 
	C194.899872,155.484482 192.991653,154.672241 191.070099,153.897125 
	C191.056763,153.934235 191.133102,153.914383 190.997253,153.613007 
	C190.227509,153.252808 189.593628,153.193985 188.769913,153.060867 
	C188.580078,152.986572 188.172424,152.979492 188.060135,152.717850 
	C187.618378,152.354034 187.288910,152.251877 186.768982,152.073761 
	C186.578537,151.997803 186.168594,151.986420 186.057312,151.717667 
	C185.608261,151.347778 185.270493,151.246643 184.751053,151.070190 
	C184.569397,150.994873 184.176208,150.986191 184.063507,150.717484 
	C183.612595,150.345901 183.274399,150.243011 182.756332,150.065125 
	C182.576462,149.990128 182.186798,149.981628 182.043427,149.675903 
	C181.259674,149.208618 180.619308,149.047043 179.997375,148.949554 
	C180.015839,149.013611 180.144073,148.976959 180.042969,148.700150 
	C179.598007,148.324036 179.254166,148.224731 178.751282,148.052002 
	C178.592255,147.978561 178.241974,147.984070 178.071014,147.649261 
	C176.922989,147.169556 175.945938,147.024689 174.976593,146.944855 
	C174.984329,147.009918 175.114578,146.995544 175.026154,146.748199 
	C174.639938,146.397949 174.342163,146.295059 173.679260,146.110016 
	C171.828568,145.363297 170.342972,144.698730 168.870209,143.700500 
	C168.252762,143.200668 167.622498,143.034485 167.009399,142.915771 
	C167.026596,142.963226 167.120514,142.926208 166.966797,142.606415 
	C165.523941,141.905487 164.234818,141.524338 162.760101,141.069580 
	C162.574509,140.995972 162.175415,140.983261 162.065765,140.712769 
	C161.617615,140.340256 161.279114,140.238235 160.759094,140.062897 
	C160.577545,139.989578 160.186264,139.974396 160.075531,139.703735 
	C159.625580,139.329849 159.286346,139.226624 158.763626,139.053345 
	C158.580139,138.983307 158.187363,138.982193 158.068695,138.714172 
	C157.609116,138.343246 157.268188,138.240372 156.750793,138.062347 
	C156.574310,137.987183 156.190735,137.981461 156.016357,137.651886 
	C153.566605,136.504898 151.291245,135.687485 149.012741,134.925842 
	C149.009583,134.981583 149.121155,134.986664 149.031281,134.740936 
	C148.644714,134.390656 148.348022,134.286102 147.715897,134.025070 
	C138.015411,129.231232 128.553299,124.777847 119.313889,119.902428 
	C110.843185,115.432632 102.240860,111.050484 94.363716,105.655556 
	C82.549294,97.564034 71.318031,88.621048 59.885590,79.758392 
	C59.624538,79.272484 59.316677,79.068336 59.001396,78.930069 
	C58.993973,78.995956 59.125721,79.010948 59.039135,78.733734 
	C58.630730,78.261642 58.308910,78.066765 57.988201,77.941696 
	C57.989311,78.011520 58.128963,78.010292 58.041500,77.733368 
	C57.631725,77.263939 57.309410,77.071442 56.990738,76.946793 
	C56.994381,77.014633 57.130123,77.008263 57.044243,76.729401 
	C56.636848,76.248741 56.315334,76.046951 55.990387,75.923065 
	C55.986958,76.000969 56.142746,76.008484 56.054489,75.727722 
	C55.641956,75.243271 55.317680,75.039574 54.995789,74.920296 
	C54.998173,75.004715 55.167015,75.000244 55.067986,74.722725 
	C54.643837,74.242821 54.318722,74.040436 53.991524,73.921616 
	C53.989433,74.005188 54.156551,74.010071 54.063103,73.729385 
	C53.654919,73.222145 53.340187,72.995575 52.985470,72.560303 
	C52.783524,72.078613 52.544117,71.951584 52.101765,71.705872 
	C51.647011,71.255714 51.317764,71.070198 50.991348,70.947723 
	C50.994183,71.010765 51.120293,71.005852 51.036888,70.731583 
	C50.632957,70.275398 50.312435,70.093491 49.994331,69.960388 
	C49.996754,70.009201 50.094410,70.004929 50.022041,69.727234 
	C49.631615,69.256699 49.313557,69.063850 48.990242,68.933319 
	C48.984989,68.995636 49.109566,69.006691 49.035881,68.726517 
	C48.638714,68.260902 48.315228,68.075462 47.998951,67.953079 
	C48.006157,68.016129 48.132320,68.002266 48.044922,67.728836 
	C47.636608,67.273796 47.315693,67.092186 46.995583,66.957581 
	C46.996395,67.004578 47.090405,67.003319 47.021507,66.726219 
	C46.633648,66.267426 46.314690,66.085732 45.996391,65.954292 
	C45.997044,66.004555 46.097569,66.003593 46.025936,65.726715 
	C45.634605,65.268196 45.314911,65.086555 44.996216,64.955109 
	C44.997215,65.005295 45.097595,65.003662 45.025669,64.725914 
	C44.633839,64.261742 44.313934,64.075310 43.989689,63.944199 
	C43.985348,63.999512 44.095921,64.008865 44.020935,63.731461 
	C43.626923,63.261921 43.307892,63.069790 42.989082,62.943390 
	C42.989300,63.009125 43.120770,63.009575 43.037903,62.731148 
	C42.633057,62.257683 42.311077,62.062641 41.990028,61.938583 
	C41.990963,62.009571 42.132946,62.008533 42.044968,61.731300 
	C41.633949,61.261143 41.310913,61.068226 40.995697,60.940727 
	C41.003521,61.006149 41.134380,60.990669 41.039402,60.724499 
	C40.619167,60.358688 40.293907,60.259045 39.659897,59.993126 
	C38.971466,59.117393 38.715874,58.296577 38.193825,57.714893 
	C27.300106,45.576706 18.118769,32.266174 10.364421,17.915583 
	C7.579584,12.761821 4.140496,7.961582 1.000000,3.000000 
z"/>
<path fill="#000000" opacity="1.000000" stroke="none" 
	d="
M293.000000,419.000000 
	C195.758087,419.000000 98.516182,419.000000 1.000000,419.000000 
	C1.000000,361.312714 1.000000,303.625031 1.343348,245.343475 
	C4.438988,237.864685 8.455570,231.182587 9.601543,224.039902 
	C10.842049,216.307999 14.450363,212.743668 21.435501,210.932129 
	C26.351280,209.657257 30.799232,207.085754 31.105007,201.325089 
	C31.375420,196.230591 30.466116,191.079208 30.633553,185.971161 
	C30.720415,183.321152 31.581850,180.432129 33.002968,178.241074 
	C33.467869,177.524277 36.817719,178.593170 38.816628,179.000412 
	C39.575272,179.155014 40.245022,179.745895 41.013184,180.367188 
	C41.252995,180.892395 41.517624,181.041733 41.966869,181.299011 
	C42.371235,181.745483 42.673702,181.937439 42.973343,182.084778 
	C42.970516,182.040176 42.881542,182.048935 42.973404,182.294769 
	C43.367210,182.640976 43.669155,182.741333 44.285469,182.982407 
	C50.618496,188.464081 56.389736,194.122971 62.726803,199.054779 
	C68.817513,203.794861 75.494072,207.782150 81.927048,212.072861 
	C81.940880,212.045502 81.886604,212.073837 82.018600,212.375061 
	C83.077415,213.157120 84.004234,213.637939 84.946236,214.081467 
	C84.961418,214.044189 84.886528,214.073746 85.018066,214.374115 
	C86.075562,215.156189 87.001511,215.637909 87.935448,216.084015 
	C87.943436,216.048370 87.871315,216.059967 87.965675,216.306854 
	C88.365273,216.654404 88.670509,216.755051 89.190231,216.930695 
	C89.404709,217.005676 89.856903,217.050690 89.952835,217.300735 
	C90.357674,217.654510 90.666573,217.758224 91.240723,217.962082 
	C91.951378,218.393799 92.396782,218.725372 92.937515,219.312637 
	C93.347748,219.671387 93.662651,219.774445 94.306862,220.017899 
	C96.731812,221.147064 98.827446,222.135849 100.930573,223.088715 
	C100.938049,223.052795 100.865479,223.063583 100.960754,223.311707 
	C101.363487,223.661591 101.670937,223.763367 102.189377,223.938049 
	C102.400352,224.010956 102.844521,224.056046 102.946213,224.304077 
	C103.357758,224.655792 103.667610,224.759491 104.313522,225.019501 
	C107.255005,226.437317 109.801956,227.842575 112.477715,228.931274 
	C118.588593,231.417618 124.762512,233.749023 130.917542,236.107025 
	C130.924271,236.070724 130.850464,236.073334 130.944214,236.328156 
	C131.352615,236.685760 131.667282,236.788544 132.286301,236.954239 
	C133.004745,237.032425 133.418823,237.047714 133.934357,237.314941 
	C134.350204,237.671524 134.664581,237.776184 135.190277,237.947845 
	C135.401596,238.014847 135.842926,238.057190 135.946045,238.304138 
	C136.358810,238.657974 136.668457,238.764862 137.299530,238.944870 
	C138.057968,239.059540 138.495010,239.101105 139.067413,239.423126 
	C139.800598,239.764740 140.398422,239.825882 141.200897,239.956802 
	C141.405533,240.026566 141.836517,240.061737 142.013489,240.372742 
	C143.117462,240.744278 144.044464,240.804794 145.189713,240.931885 
	C145.407944,240.998474 145.861115,241.052200 145.994080,241.348755 
	C146.742493,241.722595 147.357956,241.799881 148.331451,242.044647 
	C153.457916,243.438339 158.226334,244.664520 163.391693,245.963501 
	C170.481125,247.374832 177.173645,248.713379 183.953918,250.304504 
	C184.349564,250.667526 184.657486,250.778000 185.306046,250.956924 
	C186.103806,250.969543 186.560913,250.913712 187.253159,250.908478 
	C187.488297,250.959045 187.958328,250.856644 188.178268,250.936523 
	C188.398209,251.016418 188.865265,251.045685 189.057861,251.367798 
	C190.482880,251.745422 191.715302,251.800934 193.269806,251.936829 
	C194.030640,252.069290 194.469406,252.121353 195.067169,252.484833 
	C196.143448,252.821411 197.060745,252.846588 198.343506,252.948029 
	C199.454666,253.052979 200.200348,253.081635 201.130615,253.428543 
	C202.527100,253.784378 203.739029,253.821976 205.274185,253.938339 
	C206.037933,254.063889 206.478470,254.110657 207.140778,254.506622 
	C213.886887,255.514267 220.411194,256.172699 227.343292,256.901276 
	C229.849152,257.257568 231.947235,257.543762 234.453094,257.913849 
	C238.949509,258.669647 243.017273,259.675903 247.131775,259.932648 
	C252.866165,260.290436 257.919189,261.271912 259.929871,267.630798 
	C260.108734,268.196381 260.583771,268.668304 260.929657,269.402313 
	C260.938080,269.620880 261.086090,270.032532 261.082642,270.306824 
	C261.378601,270.777588 261.678009,270.974091 261.960754,271.110138 
	C261.944061,271.049713 261.824463,271.087311 261.896271,271.429230 
	C262.625122,272.912415 263.282166,274.053650 263.941589,275.409149 
	C263.943970,275.623383 264.091156,276.025818 264.039093,276.403320 
	C266.303986,282.253204 268.620941,287.725586 270.942871,293.415222 
	C270.947845,293.632507 271.098206,294.040344 271.048279,294.360107 
	C271.311768,295.179199 271.625153,295.678528 271.947723,296.400940 
	C271.956879,296.624023 272.108795,297.043945 272.054504,297.363770 
	C272.309784,298.183289 272.619324,298.682983 272.939667,299.403290 
	C272.950470,299.623871 273.111481,300.035156 273.068298,300.427368 
	C274.327576,304.606628 275.630035,308.393646 276.945160,312.405212 
	C276.957855,312.629761 277.121368,313.048798 277.066040,313.452881 
	C279.406616,324.235718 281.802551,334.614532 284.142578,345.401550 
	C285.064911,352.222015 286.233612,358.612030 286.985016,365.050751 
	C289.082489,383.023041 291.007141,401.015503 293.000000,419.000000 
z"/>
<path fill="#BC77F0" opacity="1.000000" stroke="none" 
	d="
M40.955292,180.137909 
	C40.245022,179.745895 39.575272,179.155014 38.816628,179.000412 
	C36.817719,178.593170 33.467869,177.524277 33.002968,178.241074 
	C31.581850,180.432129 30.720415,183.321152 30.633553,185.971161 
	C30.466116,191.079208 31.375420,196.230591 31.105007,201.325089 
	C30.799232,207.085754 26.351280,209.657257 21.435501,210.932129 
	C14.450363,212.743668 10.842049,216.307999 9.601543,224.039902 
	C8.455570,231.182587 4.438988,237.864685 1.343348,244.874817 
	C1.000000,164.645767 1.000000,84.291542 1.000000,3.468657 
	C4.140496,7.961582 7.579584,12.761821 10.364421,17.915583 
	C18.118769,32.266174 27.300106,45.576706 38.193825,57.714893 
	C38.715874,58.296577 38.971466,59.117393 39.828217,60.165257 
	C40.571423,60.683414 40.847786,60.845749 41.134380,60.990669 
	C41.134380,60.990669 41.003521,61.006149 41.159031,61.156319 
	C41.587345,61.540501 41.860146,61.774517 42.132946,62.008533 
	C42.132946,62.008533 41.990963,62.009571 42.151428,62.155045 
	C42.581520,62.536869 42.851143,62.773220 43.120770,63.009575 
	C43.120770,63.009575 42.989300,63.009125 43.147842,63.156639 
	C43.569565,63.539055 43.832741,63.773960 44.095921,64.008865 
	C44.095921,64.008865 43.985348,63.999512 44.140671,64.161057 
	C44.563194,64.549629 44.830395,64.776642 45.097595,65.003662 
	C45.097595,65.003662 44.997215,65.005295 45.147903,65.168190 
	C45.564922,65.555252 45.831245,65.779427 46.097569,66.003593 
	C46.097569,66.003593 45.997044,66.004555 46.146160,66.167419 
	C46.560318,66.554626 46.825363,66.778976 47.090405,67.003319 
	C47.090405,67.003319 46.996395,67.004578 47.150299,67.173370 
	C47.580242,67.562202 47.856281,67.782234 48.132320,68.002266 
	C48.132320,68.002266 48.006157,68.016129 48.157505,68.165253 
	C48.575756,68.545151 48.842663,68.775925 49.109566,69.006691 
	C49.109566,69.006691 48.984989,68.995636 49.139530,69.153671 
	C49.560852,69.542778 49.827629,69.773857 50.094410,70.004929 
	C50.094410,70.004929 49.996754,70.009201 50.153305,70.171326 
	C50.579998,70.557587 50.850147,70.781715 51.120293,71.005852 
	C51.120293,71.005852 50.994183,71.010765 51.161728,71.166122 
	C51.628605,71.537827 51.927937,71.754166 52.227268,71.970512 
	C52.544117,71.951584 52.783524,72.078613 53.139374,72.797424 
	C53.607697,73.498856 53.882122,73.754463 54.156551,74.010071 
	C54.156551,74.010071 53.989433,74.005188 54.156086,74.145187 
	C54.604164,74.523537 54.885590,74.761887 55.167015,75.000244 
	C55.167015,75.000244 54.998173,75.004715 55.159878,75.142258 
	C55.595306,75.522697 55.869026,75.765587 56.142746,76.008484 
	C56.142746,76.008484 55.986958,76.000969 56.148914,76.146210 
	C56.583954,76.530388 56.857037,76.769325 57.130123,77.008263 
	C57.130123,77.008263 56.994381,77.014633 57.155510,77.159576 
	C57.587414,77.539780 57.858189,77.775040 58.128963,78.010292 
	C58.128963,78.010292 57.989311,78.011520 58.152351,78.156197 
	C58.585499,78.537567 58.855610,78.774254 59.125721,79.010948 
	C59.125721,79.010948 58.993973,78.995956 59.115791,79.143768 
	C59.378593,79.588821 59.578979,79.838341 59.838772,80.040154 
	C71.318031,88.621048 82.549294,97.564034 94.363716,105.655556 
	C102.240860,111.050484 110.843185,115.432632 119.313889,119.902428 
	C128.553299,124.777847 138.015411,129.231232 147.875336,134.181580 
	C148.620987,134.657883 148.871307,134.821915 149.121155,134.986664 
	C149.121155,134.986664 149.009583,134.981583 149.192108,135.238693 
	C151.646683,136.324356 153.918701,137.152908 156.190735,137.981461 
	C156.190735,137.981461 156.574310,137.987183 156.930756,138.244598 
	C157.587265,138.662094 157.887314,138.822144 158.187363,138.982193 
	C158.187363,138.982193 158.580139,138.983307 158.936142,139.240158 
	C159.590179,139.656143 159.888229,139.815277 160.186264,139.974396 
	C160.186264,139.974396 160.577545,139.989578 160.932739,140.246979 
	C161.583755,140.664001 161.879578,140.823624 162.175415,140.983261 
	C162.175415,140.983261 162.574509,140.995972 162.901993,141.391754 
	C164.526489,142.167084 165.823502,142.546646 167.120514,142.926208 
	C167.120514,142.926208 167.026596,142.963226 167.188354,143.138626 
	C167.852539,143.554077 168.354965,143.794128 168.857376,144.034180 
	C170.342972,144.698730 171.828568,145.363297 173.840546,146.264359 
	C174.617645,146.663513 174.866867,146.828400 175.114578,146.995544 
	C175.114578,146.995544 174.984329,147.009918 175.244217,147.185577 
	C176.416733,147.568863 177.329346,147.776474 178.241974,147.984070 
	C178.241974,147.984070 178.592255,147.978561 178.922821,148.239227 
	C179.550262,148.658920 179.847168,148.817947 180.144073,148.976959 
	C180.144073,148.976959 180.015839,149.013611 180.220978,149.175705 
	C181.013016,149.552399 181.599915,149.767014 182.186798,149.981628 
	C182.186798,149.981628 182.576462,149.990128 182.932831,150.247009 
	C183.584869,150.664658 183.880539,150.825424 184.176208,150.986191 
	C184.176208,150.986191 184.569397,150.994873 184.928986,151.248749 
	C185.581909,151.663895 185.875244,151.825165 186.168594,151.986420 
	C186.168594,151.986420 186.578537,151.997803 186.945160,152.247284 
	C187.589890,152.673340 187.876755,152.834244 188.172424,152.979492 
	C188.172424,152.979492 188.580078,152.986572 188.997879,153.255280 
	C189.988159,153.654129 190.560623,153.784256 191.133102,153.914383 
	C191.133102,153.914383 191.056763,153.934235 191.139648,154.253510 
	C193.193069,155.358780 195.163605,156.144775 197.134155,156.930786 
	C197.134155,156.930786 197.055817,156.933502 197.126251,157.240906 
	C199.753418,158.718460 202.310120,159.888596 204.866837,161.058731 
	C214.896744,166.865143 225.106430,172.387177 234.894867,178.575531 
	C241.697754,182.876404 247.921585,188.093201 254.947174,193.215851 
	C256.040436,193.655106 256.590607,193.779297 257.140778,193.903473 
	C257.140778,193.903488 257.047394,193.931168 257.191040,194.107056 
	C257.600677,194.524948 257.866669,194.766968 258.132660,195.008972 
	C258.132660,195.008972 257.987976,195.013916 258.158386,195.152466 
	C258.610352,195.520996 258.891907,195.750946 259.173462,195.980911 
	C259.506989,195.961746 259.759186,196.095718 260.133698,196.823318 
	C260.600128,197.514038 260.862946,197.764236 261.125763,198.014450 
	C261.125763,198.014450 260.984161,198.012405 261.154785,198.150909 
	C261.590454,198.530823 261.855469,198.772217 262.120514,199.013611 
	C262.120514,199.013611 261.985504,199.013474 262.155334,199.154694 
	C262.592072,199.534760 262.858948,199.773621 263.125824,200.012482 
	C263.125824,200.012482 262.986786,200.012482 263.155792,200.153534 
	C263.593292,200.533340 263.861786,200.772110 264.130310,201.010895 
	C264.130310,201.010880 263.987823,201.011795 264.156464,201.151733 
	C264.593536,201.531464 264.861969,201.771255 265.130402,202.011047 
	C265.130402,202.011047 264.987579,202.011719 265.156097,202.151581 
	C265.592743,202.531311 265.860870,202.771194 266.128998,203.011063 
	C266.128998,203.011063 265.987427,203.012253 266.156128,203.151947 
	C266.592468,203.531616 266.860077,203.771591 267.127686,204.011551 
	C267.127686,204.011551 266.986420,204.015274 267.159973,204.152252 
	C267.612488,204.518890 267.891418,204.748550 268.170349,204.978226 
	C268.505219,204.960434 268.758575,205.095535 269.140198,205.821609 
	C269.622986,206.499100 269.895996,206.738525 270.169006,206.977951 
	C270.496918,206.959763 270.747284,207.090271 271.120209,207.814209 
	C271.599487,208.489563 271.878754,208.720215 272.157990,208.950882 
	C278.777008,219.345383 285.396057,229.739868 292.072632,240.805450 
	C292.463806,241.988892 292.797455,242.501266 293.131104,243.013657 
	C293.131104,243.013657 293.029327,242.993713 293.036072,243.304642 
	C293.645264,244.748917 294.247742,245.882278 294.850220,247.015625 
	C294.850220,247.015625 295.006470,247.415344 295.134644,247.838898 
	C295.399323,248.558380 295.598663,248.803101 295.860870,248.996597 
	C295.860870,248.996597 296.006958,249.410126 296.045624,249.922180 
	C296.337738,250.952301 296.591187,251.470367 296.844635,251.988449 
	C296.844635,251.988449 297.002258,252.411331 297.045929,252.929031 
	C297.339783,253.967255 297.589966,254.487762 297.840179,255.008270 
	C297.840179,255.008270 297.999481,255.406158 297.999847,256.016663 
	C298.606110,258.740753 299.212006,260.854309 299.817902,262.967896 
	C300.201019,263.751556 300.584137,264.535187 300.631958,265.738647 
	C299.860809,266.739502 299.424957,267.320526 298.651733,267.878387 
	C297.214844,267.600525 296.115356,267.345825 294.858337,266.905212 
	C294.139801,266.784973 293.578766,266.850677 292.692810,266.902588 
	C291.935547,266.856232 291.503204,266.823700 290.993500,266.557434 
	C290.280853,266.200714 289.645508,266.077698 288.670959,265.910095 
	C287.224915,265.595520 286.118042,265.325531 284.735535,264.806396 
	C281.916626,264.090607 279.373444,263.624023 276.529053,263.164429 
	C275.826447,263.159271 275.424988,263.147125 274.825806,262.912964 
	C273.759308,262.762238 272.890564,262.833557 271.625305,262.916687 
	C270.172882,262.880524 269.117004,262.832520 267.911469,262.477112 
	C266.451782,261.831055 265.141693,261.492401 263.480591,261.152527 
	C262.427734,261.135162 261.725922,261.119049 260.791962,260.862854 
	C259.036591,259.752075 257.513367,258.881378 255.739044,257.775146 
	C247.642593,243.173462 238.443619,229.898926 225.051971,219.596634 
	C216.564713,210.183228 206.525818,203.529007 194.955368,198.631561 
	C189.593796,196.180237 184.345749,194.058777 178.994095,191.650787 
	C178.256790,190.930237 177.623093,190.496201 176.613190,190.025757 
	C173.827011,189.322311 171.417068,188.655273 168.733475,187.754333 
	C155.641479,184.676361 142.823120,181.832321 129.702011,178.758270 
	C122.604141,177.673767 115.809029,176.819244 108.736435,175.704163 
	C100.971954,174.298203 93.484955,173.152786 85.671371,171.773499 
	C74.384895,170.043182 63.426487,168.535812 52.464478,167.055023 
	C47.225594,166.347351 41.996624,165.433655 36.732052,165.090256 
	C32.434032,164.809891 31.228914,167.004944 33.580029,170.607941 
	C34.914597,172.653107 37.036381,174.167343 38.604061,176.083939 
	C39.580479,177.277649 40.184269,178.776184 40.955292,180.137909 
z"/>
<path fill="#854DAD" opacity="1.000000" stroke="none" 
	d="
M340.138672,282.947021 
	C348.341736,287.720062 356.544800,292.493073 364.905762,297.964630 
	C364.751709,302.198639 363.897034,305.791199 364.261353,309.255585 
	C364.748169,313.885132 365.992554,318.231049 362.478455,322.441620 
	C361.561829,323.539978 362.408905,326.240356 362.693207,328.168488 
	C362.907257,329.620087 364.333069,331.511810 363.819550,332.353607 
	C359.877441,338.815613 363.306091,344.992096 363.822174,351.373169 
	C364.737671,362.693329 364.575409,374.098358 364.970367,385.464142 
	C365.119446,389.754852 365.960480,394.051941 365.782288,398.316681 
	C365.493713,405.223907 364.624207,412.106812 364.000000,419.000000 
	C353.645782,419.000000 343.291534,419.000000 332.442108,418.579834 
	C331.302582,409.895905 330.477020,401.640381 330.099152,393.364441 
	C329.938171,389.838562 330.559052,386.246582 331.093750,382.725494 
	C332.334686,374.553375 327.047089,366.479248 330.863129,358.214508 
	C331.456512,356.929413 330.540955,354.986969 330.455231,353.341614 
	C330.192902,348.308350 329.803497,343.270996 329.822235,338.236572 
	C329.843658,332.476074 330.354584,326.718811 330.456055,320.956696 
	C330.537781,316.315918 330.290314,311.670227 330.255829,307.026245 
	C330.221588,302.414185 330.206024,297.799957 330.316772,293.189911 
	C330.358765,291.442566 330.145142,288.906891 331.144592,288.115723 
	C333.826141,285.993011 337.100037,284.618622 340.138672,282.947021 
z"/>
<path fill="#884EB4" opacity="1.000000" stroke="none" 
	d="
M339.956451,282.623383 
	C337.100037,284.618622 333.826141,285.993011 331.144592,288.115723 
	C330.145142,288.906891 330.358765,291.442566 330.316772,293.189911 
	C330.206024,297.799957 330.221588,302.414185 330.255829,307.026245 
	C330.290314,311.670227 330.537781,316.315918 330.456055,320.956696 
	C330.354584,326.718811 329.843658,332.476074 329.822235,338.236572 
	C329.803497,343.270996 330.192902,348.308350 330.455231,353.341614 
	C330.540955,354.986969 331.456512,356.929413 330.863129,358.214508 
	C327.047089,366.479248 332.334686,374.553375 331.093750,382.725494 
	C330.559052,386.246582 329.938171,389.838562 330.099152,393.364441 
	C330.477020,401.640381 331.302582,409.895905 331.973450,418.579834 
	C319.979095,419.000000 307.958221,419.000000 295.464417,418.584625 
	C294.992889,416.784790 294.994232,415.400330 295.336670,413.886597 
	C298.117584,402.545044 301.080902,391.414703 302.850616,380.097656 
	C304.637268,368.672241 305.483093,357.078949 306.301941,345.528076 
	C307.389038,330.193878 308.449371,314.841736 306.393707,299.473755 
	C305.078430,289.640900 304.082062,279.765350 302.960754,269.919678 
	C302.978821,269.930389 302.966400,269.968842 303.258331,269.972626 
	C303.744781,269.969727 303.939301,269.963013 304.133820,269.956329 
	C304.133820,269.956329 304.585724,269.992126 304.971985,270.218506 
	C305.900757,270.339996 306.443237,270.235077 306.985718,270.130188 
	C317.915222,274.186707 328.844727,278.243225 339.956451,282.623383 
z"/>
<path fill="#804CA7" opacity="1.000000" stroke="none" 
	d="
M364.468658,419.000000 
	C364.624207,412.106812 365.493713,405.223907 365.782288,398.316681 
	C365.960480,394.051941 365.119446,389.754852 364.970367,385.464142 
	C364.575409,374.098358 364.737671,362.693329 363.822174,351.373169 
	C363.306091,344.992096 359.877441,338.815613 363.819550,332.353607 
	C364.333069,331.511810 362.907257,329.620087 362.693207,328.168488 
	C362.408905,326.240356 361.561829,323.539978 362.478455,322.441620 
	C365.992554,318.231049 364.748169,313.885132 364.261353,309.255585 
	C363.897034,305.791199 364.751709,302.198639 365.055603,298.271637 
	C381.756897,309.374603 393.343048,325.332886 403.398193,342.655090 
	C400.433441,343.101562 397.247040,342.473694 397.095734,346.468933 
	C396.723206,356.303925 396.344666,366.144257 396.295746,375.984100 
	C396.256226,383.936249 396.625671,391.893494 396.941315,399.843384 
	C397.195007,406.232849 397.639923,412.614746 398.000000,419.000000 
	C386.979095,419.000000 375.958221,419.000000 364.468658,419.000000 
z"/>
<path fill="#7D4CA2" opacity="1.000000" stroke="none" 
	d="
M398.468658,419.000000 
	C397.639923,412.614746 397.195007,406.232849 396.941315,399.843384 
	C396.625671,391.893494 396.256226,383.936249 396.295746,375.984100 
	C396.344666,366.144257 396.723206,356.303925 397.095734,346.468933 
	C397.247040,342.473694 400.433441,343.101562 403.453674,342.997375 
	C403.870697,342.994690 404.009979,343.396027 404.132690,343.822083 
	C404.408936,344.529053 404.609344,344.771118 404.856689,344.974335 
	C407.824402,351.078461 410.792114,357.182617 413.802490,363.923096 
	C414.958771,366.686676 416.072327,368.813843 417.185913,370.941010 
	C417.185913,370.941010 417.087585,370.959290 417.028870,371.319519 
	C419.273132,378.104889 421.576111,384.529999 423.879089,390.955078 
	C423.879089,390.955078 424.037231,391.394287 424.185608,391.781342 
	C424.438202,392.445923 424.590851,392.693573 424.791992,392.911377 
	C425.205261,394.627747 425.618530,396.344086 425.994812,398.834656 
	C426.603516,401.393860 427.249146,403.178833 427.894775,404.963806 
	C427.894775,404.963806 428.055237,405.357452 427.999084,406.008240 
	C428.628601,410.772675 429.314301,414.886322 430.000000,419.000000 
	C419.645782,419.000000 409.291534,419.000000 398.468658,419.000000 
z"/>
<path fill="#AF6EDF" opacity="1.000000" stroke="none" 
	d="
M294.995544,414.015869 
	C294.994232,415.400330 294.992889,416.784790 294.995789,418.584625 
	C294.555542,419.000000 294.111115,419.000000 293.333313,419.000000 
	C291.007141,401.015503 289.082489,383.023041 286.985016,365.050751 
	C286.233612,358.612030 285.064911,352.222015 284.322021,345.401001 
	C284.557373,344.992279 284.916229,344.997345 285.154297,345.294373 
	C287.929321,363.167694 290.486237,380.741150 292.990906,398.322052 
	C293.734650,403.542572 294.331451,408.784027 294.995544,414.015869 
z"/>
<path fill="#A86AD6" opacity="1.000000" stroke="none" 
	d="
M430.333313,419.000000 
	C429.314301,414.886322 428.628601,410.772675 427.993774,406.220703 
	C429.293701,409.934601 430.542786,414.086792 431.895935,418.619507 
	C431.555542,419.000000 431.111115,419.000000 430.333313,419.000000 
z"/>
<path fill="#A86AD6" opacity="1.000000" stroke="none" 
	d="
M423.931091,390.558228 
	C421.576111,384.529999 419.273132,378.104889 417.022400,371.269958 
	C419.377441,377.293854 421.680267,383.727631 423.931091,390.558228 
z"/>
<path fill="#D198F1" opacity="1.000000" stroke="none" 
	d="
M204.848114,160.692276 
	C202.310120,159.888596 199.753418,158.718460 197.127625,157.201752 
	C199.648849,158.012054 202.239120,159.168945 204.848114,160.692276 
z"/>
<path fill="#A86AD6" opacity="1.000000" stroke="none" 
	d="
M417.105072,370.573242 
	C416.072327,368.813843 414.958771,366.686676 413.929077,364.252045 
	C415.016693,366.031555 416.020447,368.118530 417.105072,370.573242 
z"/>
<path fill="#D198F1" opacity="1.000000" stroke="none" 
	d="
M156.016357,137.651886 
	C153.918701,137.152908 151.646683,136.324356 149.195282,135.182953 
	C151.291245,135.687485 153.566605,136.504898 156.016357,137.651886 
z"/>
<path fill="#D198F1" opacity="1.000000" stroke="none" 
	d="
M196.971130,156.613754 
	C195.163605,156.144775 193.193069,155.358780 191.152969,154.216385 
	C192.991653,154.672241 194.899872,155.484482 196.971130,156.613754 
z"/>
<path fill="#D198F1" opacity="1.000000" stroke="none" 
	d="
M299.893860,262.575745 
	C299.212006,260.854309 298.606110,258.740753 298.013580,256.230530 
	C298.674561,257.950439 299.322174,260.066986 299.893860,262.575745 
z"/>
<path fill="#A86AD6" opacity="1.000000" stroke="none" 
	d="
M427.941406,404.582703 
	C427.249146,403.178833 426.603516,401.393860 425.995667,399.219940 
	C426.685028,400.621216 427.336548,402.411407 427.941406,404.582703 
z"/>
<path fill="#AF6EDF" opacity="1.000000" stroke="none" 
	d="
M298.989136,267.901520 
	C299.424957,267.320526 299.860809,266.739502 300.570923,266.072693 
	C301.160522,266.778381 301.475891,267.569885 301.893250,268.685089 
	C301.995239,269.008820 301.981812,269.034607 301.651062,269.006653 
	C300.543274,268.619629 299.766174,268.260590 298.989136,267.901520 
z"/>
<path fill="#D198F1" opacity="1.000000" stroke="none" 
	d="
M294.912415,246.669830 
	C294.247742,245.882278 293.645264,244.748917 293.046875,243.253922 
	C293.692169,244.036194 294.333405,245.180130 294.912415,246.669830 
z"/>
<path fill="#D198F1" opacity="1.000000" stroke="none" 
	d="
M166.966797,142.606415 
	C165.823502,142.546646 164.526489,142.167084 163.087585,141.465363 
	C164.234818,141.524338 165.523941,141.905487 166.966797,142.606415 
z"/>
<path fill="#D198F1" opacity="1.000000" stroke="none" 
	d="
M178.071014,147.649261 
	C177.329346,147.776474 176.416733,147.568863 175.236481,147.120529 
	C175.945938,147.024689 176.922989,147.169556 178.071014,147.649261 
z"/>
<path fill="#915EB9" opacity="1.000000" stroke="none" 
	d="
M306.660645,270.061951 
	C306.443237,270.235077 305.900757,270.339996 305.188599,270.285339 
	C305.457794,270.081757 305.896667,270.037750 306.660645,270.061951 
z"/>
<path fill="#D198F1" opacity="1.000000" stroke="none" 
	d="
M168.870209,143.700516 
	C168.354965,143.794128 167.852539,143.554077 167.171173,143.091156 
	C167.622498,143.034485 168.252762,143.200668 168.870209,143.700516 
z"/>
<path fill="#D198F1" opacity="1.000000" stroke="none" 
	d="
M293.067139,242.689697 
	C292.797455,242.501266 292.463806,241.988892 292.080688,241.169540 
	C292.355225,241.363632 292.679199,241.864685 293.067139,242.689697 
z"/>
<path fill="#D198F1" opacity="1.000000" stroke="none" 
	d="
M182.043427,149.675903 
	C181.599915,149.767014 181.013016,149.552399 180.202530,149.111633 
	C180.619308,149.047043 181.259674,149.208618 182.043427,149.675903 
z"/>
<path fill="#D198F1" opacity="1.000000" stroke="none" 
	d="
M296.911560,251.666870 
	C296.591187,251.470367 296.337738,250.952301 296.058899,250.141052 
	C296.348480,250.347031 296.663483,250.846161 296.911560,251.666870 
z"/>
<path fill="#D198F1" opacity="1.000000" stroke="none" 
	d="
M297.907043,254.685242 
	C297.589966,254.487762 297.339783,253.967255 297.063721,253.153992 
	C297.349854,253.361572 297.661896,253.861908 297.907043,254.685242 
z"/>
<path fill="#D198F1" opacity="1.000000" stroke="none" 
	d="
M257.006836,193.612045 
	C256.590607,193.779297 256.040436,193.655106 255.268311,193.349731 
	C255.655212,193.219254 256.264069,193.269928 257.006836,193.612045 
z"/>
<path fill="#D198F1" opacity="1.000000" stroke="none" 
	d="
M190.997253,153.613007 
	C190.560623,153.784256 189.988159,153.654129 189.187714,153.329575 
	C189.593628,153.193985 190.227509,153.252808 190.997253,153.613007 
z"/>
<path fill="#D198F1" opacity="1.000000" stroke="none" 
	d="
M52.101765,71.705872 
	C51.927937,71.754166 51.628605,71.537827 51.158890,71.103088 
	C51.317764,71.070198 51.647011,71.255714 52.101765,71.705872 
z"/>
<path fill="#D198F1" opacity="1.000000" stroke="none" 
	d="
M54.063103,73.729385 
	C53.882122,73.754463 53.607697,73.498856 53.179363,73.006126 
	C53.340187,72.995575 53.654919,73.222145 54.063103,73.729385 
z"/>
<path fill="#D198F1" opacity="1.000000" stroke="none" 
	d="
M50.022041,69.727234 
	C49.827629,69.773857 49.560852,69.542778 49.144783,69.091354 
	C49.313557,69.063850 49.631615,69.256699 50.022041,69.727234 
z"/>
<path fill="#D198F1" opacity="1.000000" stroke="none" 
	d="
M51.036888,70.731583 
	C50.850147,70.781715 50.579998,70.557587 50.150879,70.122513 
	C50.312435,70.093491 50.632957,70.275398 51.036888,70.731583 
z"/>
<path fill="#AF6EDF" opacity="1.000000" stroke="none" 
	d="
M302.004700,268.997375 
	C302.014160,268.985962 302.494965,269.053192 302.727539,269.319611 
	C302.960144,269.586029 302.966400,269.968842 302.966400,269.968842 
	C302.966400,269.968842 302.978821,269.930389 302.781128,269.798523 
	C302.370758,269.467499 302.170227,269.256836 301.981812,269.034607 
	C301.981812,269.034607 301.995239,269.008820 302.004700,268.997375 
z"/>
<path fill="#915EB9" opacity="1.000000" stroke="none" 
	d="
M303.258331,269.972626 
	C302.966400,269.968842 302.960144,269.586029 302.958374,269.394623 
	C303.273010,269.291107 303.589386,269.378967 304.019775,269.711578 
	C303.939301,269.963013 303.744781,269.969727 303.258331,269.972626 
z"/>
<path fill="#D198F1" opacity="1.000000" stroke="none" 
	d="
M49.035881,68.726517 
	C48.842663,68.775925 48.575756,68.545151 48.150299,68.102203 
	C48.315228,68.075462 48.638714,68.260902 49.035881,68.726517 
z"/>
<path fill="#D198F1" opacity="1.000000" stroke="none" 
	d="
M48.044922,67.728836 
	C47.856281,67.782234 47.580242,67.562202 47.149490,67.126373 
	C47.315693,67.092186 47.636608,67.273796 48.044922,67.728836 
z"/>
<path fill="#D198F1" opacity="1.000000" stroke="none" 
	d="
M47.021507,66.726219 
	C46.825363,66.778976 46.560318,66.554626 46.145508,66.117157 
	C46.314690,66.085732 46.633648,66.267426 47.021507,66.726219 
z"/>
<path fill="#D198F1" opacity="1.000000" stroke="none" 
	d="
M46.025936,65.726715 
	C45.831245,65.779427 45.564922,65.555252 45.146904,65.117996 
	C45.314911,65.086555 45.634605,65.268196 46.025936,65.726715 
z"/>
<path fill="#D198F1" opacity="1.000000" stroke="none" 
	d="
M45.025669,64.725914 
	C44.830395,64.776642 44.563194,64.549629 44.145012,64.105743 
	C44.313934,64.075310 44.633839,64.261742 45.025669,64.725914 
z"/>
<path fill="#D198F1" opacity="1.000000" stroke="none" 
	d="
M44.020935,63.731461 
	C43.832741,63.773960 43.569565,63.539055 43.147625,63.090904 
	C43.307892,63.069790 43.626923,63.261921 44.020935,63.731461 
z"/>
<path fill="#804CA7" opacity="1.000000" stroke="none" 
	d="
M404.866394,344.711060 
	C404.609344,344.771118 404.408936,344.529053 404.155975,344.033203 
	C404.329712,344.028107 404.602936,344.237915 404.866394,344.711060 
z"/>
<path fill="#D198F1" opacity="1.000000" stroke="none" 
	d="
M43.037903,62.731148 
	C42.851143,62.773220 42.581520,62.536869 42.150494,62.084057 
	C42.311077,62.062641 42.633057,62.257683 43.037903,62.731148 
z"/>
<path fill="#D198F1" opacity="1.000000" stroke="none" 
	d="
M42.044968,61.731300 
	C41.860146,61.774517 41.587345,61.540501 41.151207,61.090897 
	C41.310913,61.068226 41.633949,61.261143 42.044968,61.731300 
z"/>
<path fill="#A86AD6" opacity="1.000000" stroke="none" 
	d="
M424.785339,392.671509 
	C424.590851,392.693573 424.438202,392.445923 424.176361,392.014526 
	C424.324280,391.981506 424.577576,392.171814 424.785339,392.671509 
z"/>
<path fill="#D198F1" opacity="1.000000" stroke="none" 
	d="
M41.039402,60.724499 
	C40.847786,60.845749 40.571423,60.683414 40.136971,60.331535 
	C40.293907,60.259045 40.619167,60.358688 41.039402,60.724499 
z"/>
<path fill="#D198F1" opacity="1.000000" stroke="none" 
	d="
M59.885590,79.758392 
	C59.578979,79.838341 59.378593,79.588821 59.123215,79.077881 
	C59.316677,79.068336 59.624538,79.272484 59.885590,79.758392 
z"/>
<path fill="#D198F1" opacity="1.000000" stroke="none" 
	d="
M262.029480,198.740112 
	C261.855469,198.772217 261.590454,198.530823 261.155182,198.080109 
	C261.302795,198.069412 261.620636,198.268005 262.029480,198.740112 
z"/>
<path fill="#D198F1" opacity="1.000000" stroke="none" 
	d="
M261.036957,197.739761 
	C260.862946,197.764236 260.600128,197.514038 260.177490,197.042816 
	C260.327850,197.036240 260.638000,197.250656 261.036957,197.739761 
z"/>
<path fill="#D198F1" opacity="1.000000" stroke="none" 
	d="
M259.057556,195.717560 
	C258.891907,195.750946 258.610352,195.520996 258.155334,195.080154 
	C258.301819,195.064270 258.621735,195.259247 259.057556,195.717560 
z"/>
<path fill="#D198F1" opacity="1.000000" stroke="none" 
	d="
M258.051453,194.731720 
	C257.866669,194.766968 257.600677,194.524948 257.179749,194.059692 
	C257.339935,194.042450 257.655121,194.248474 258.051453,194.731720 
z"/>
<path fill="#D198F1" opacity="1.000000" stroke="none" 
	d="
M57.044243,76.729401 
	C56.857037,76.769325 56.583954,76.530388 56.152344,76.068306 
	C56.315334,76.046951 56.636848,76.248741 57.044243,76.729401 
z"/>
<path fill="#D198F1" opacity="1.000000" stroke="none" 
	d="
M58.041500,77.733368 
	C57.858189,77.775040 57.587414,77.539780 57.151871,77.091736 
	C57.309410,77.071442 57.631725,77.263939 58.041500,77.733368 
z"/>
<path fill="#D198F1" opacity="1.000000" stroke="none" 
	d="
M59.039135,78.733734 
	C58.855610,78.774254 58.585499,78.537567 58.151237,78.086380 
	C58.308910,78.066765 58.630730,78.261642 59.039135,78.733734 
z"/>
<path fill="#D198F1" opacity="1.000000" stroke="none" 
	d="
M263.033447,199.739319 
	C262.858948,199.773621 262.592072,199.534760 262.154785,199.087189 
	C262.303284,199.074371 262.622162,199.270248 263.033447,199.739319 
z"/>
<path fill="#D198F1" opacity="1.000000" stroke="none" 
	d="
M149.031281,134.740936 
	C148.871307,134.821915 148.620987,134.657883 148.210785,134.338074 
	C148.348022,134.286102 148.644714,134.390656 149.031281,134.740936 
z"/>
<path fill="#D198F1" opacity="1.000000" stroke="none" 
	d="
M188.060135,152.717850 
	C187.876755,152.834244 187.589890,152.673340 187.135620,152.323242 
	C187.288910,152.251877 187.618378,152.354034 188.060135,152.717850 
z"/>
<path fill="#D198F1" opacity="1.000000" stroke="none" 
	d="
M186.057312,151.717667 
	C185.875244,151.825165 185.581909,151.663895 185.110626,151.324066 
	C185.270493,151.246643 185.608261,151.347778 186.057312,151.717667 
z"/>
<path fill="#D198F1" opacity="1.000000" stroke="none" 
	d="
M184.063507,150.717484 
	C183.880539,150.825424 183.584869,150.664658 183.112701,150.322021 
	C183.274399,150.243011 183.612595,150.345901 184.063507,150.717484 
z"/>
<path fill="#D198F1" opacity="1.000000" stroke="none" 
	d="
M180.042969,148.700165 
	C179.847168,148.817947 179.550262,148.658920 179.081848,148.312668 
	C179.254166,148.224731 179.598007,148.324036 180.042969,148.700165 
z"/>
<path fill="#D198F1" opacity="1.000000" stroke="none" 
	d="
M175.026154,146.748199 
	C174.866867,146.828400 174.617645,146.663513 174.205658,146.346527 
	C174.342163,146.295059 174.639938,146.397949 175.026154,146.748199 
z"/>
<path fill="#D198F1" opacity="1.000000" stroke="none" 
	d="
M162.065765,140.712769 
	C161.879578,140.823624 161.583755,140.664001 161.114273,140.320282 
	C161.279114,140.238235 161.617615,140.340256 162.065765,140.712769 
z"/>
<path fill="#D198F1" opacity="1.000000" stroke="none" 
	d="
M160.075531,139.703735 
	C159.888229,139.815277 159.590179,139.656143 159.119629,139.310211 
	C159.286346,139.226624 159.625580,139.329849 160.075531,139.703735 
z"/>
<path fill="#D198F1" opacity="1.000000" stroke="none" 
	d="
M55.067986,74.722725 
	C54.885590,74.761887 54.604164,74.523537 54.158173,74.061615 
	C54.318722,74.040436 54.643837,74.242821 55.067986,74.722725 
z"/>
<path fill="#D198F1" opacity="1.000000" stroke="none" 
	d="
M295.894440,248.721436 
	C295.598663,248.803101 295.399323,248.558380 295.147400,248.053101 
	C295.330658,248.044586 295.629333,248.245438 295.894440,248.721436 
z"/>
<path fill="#D198F1" opacity="1.000000" stroke="none" 
	d="
M158.068695,138.714172 
	C157.887314,138.822144 157.587265,138.662094 157.107239,138.319763 
	C157.268188,138.240372 157.609116,138.343246 158.068695,138.714172 
z"/>
<path fill="#D198F1" opacity="1.000000" stroke="none" 
	d="
M56.054489,75.727722 
	C55.869026,75.765587 55.595306,75.522697 55.157494,75.057838 
	C55.317680,75.039574 55.641956,75.243271 56.054489,75.727722 
z"/>
<path fill="#D198F1" opacity="1.000000" stroke="none" 
	d="
M272.059113,208.682800 
	C271.878754,208.720215 271.599487,208.489563 271.170471,208.029327 
	C271.333893,208.004730 271.647064,208.209732 272.059113,208.682800 
z"/>
<path fill="#D198F1" opacity="1.000000" stroke="none" 
	d="
M270.056763,206.716217 
	C269.895996,206.738525 269.622986,206.499100 269.184448,206.042160 
	C269.327454,206.034592 269.635986,206.244537 270.056763,206.716217 
z"/>
<path fill="#D198F1" opacity="1.000000" stroke="none" 
	d="
M268.055969,204.715088 
	C267.891418,204.748550 267.612488,204.518890 267.157471,204.081635 
	C267.301483,204.066681 267.621521,204.259323 268.055969,204.715088 
z"/>
<path fill="#D198F1" opacity="1.000000" stroke="none" 
	d="
M267.035583,203.737396 
	C266.860077,203.771591 266.592468,203.531616 266.154999,203.081161 
	C266.304596,203.068207 266.624023,203.265732 267.035583,203.737396 
z"/>
<path fill="#D198F1" opacity="1.000000" stroke="none" 
	d="
M266.037018,202.736618 
	C265.860870,202.771194 265.592743,202.531311 265.155212,202.080170 
	C265.305573,202.066681 265.625305,202.264435 266.037018,202.736618 
z"/>
<path fill="#D198F1" opacity="1.000000" stroke="none" 
	d="
M265.037903,201.736664 
	C264.861969,201.771255 264.593536,201.531464 264.155457,201.080475 
	C264.305695,201.066956 264.625580,201.264618 265.037903,201.736664 
z"/>
<path fill="#D198F1" opacity="1.000000" stroke="none" 
	d="
M264.037659,200.736908 
	C263.861786,200.772110 263.593292,200.533340 263.155212,200.084000 
	C263.305420,200.069931 263.625214,200.266434 264.037659,200.736908 
z"/>
<path fill="#915EB9" opacity="1.000000" stroke="none" 
	d="
M301.651062,269.006653 
	C302.170227,269.256836 302.370758,269.467499 302.763062,269.787781 
	C304.082062,279.765350 305.078430,289.640900 306.393707,299.473755 
	C308.449371,314.841736 307.389038,330.193878 306.301941,345.528076 
	C305.483093,357.078949 304.637268,368.672241 302.850616,380.097656 
	C301.080902,391.414703 298.117584,402.545044 295.336670,413.886597 
	C294.331451,408.784027 293.734650,403.542572 292.990906,398.322052 
	C290.486237,380.741150 287.929321,363.167694 285.187866,344.870667 
	C283.077026,335.216675 281.225067,326.271057 279.211945,317.361847 
	C278.868988,315.844177 277.835724,314.482544 277.121368,313.048798 
	C277.121368,313.048798 276.957855,312.629761 276.993042,311.980835 
	C275.722626,307.566315 274.417053,303.800751 273.111450,300.035156 
	C273.111481,300.035156 272.950470,299.623871 272.942322,299.102356 
	C272.659058,298.068542 272.383911,297.556244 272.108795,297.043945 
	C272.108795,297.043945 271.956879,296.624023 271.946533,296.098755 
	C271.656830,295.062408 271.377502,294.551392 271.098206,294.040344 
	C271.098206,294.040344 270.947845,293.632507 270.980835,293.003510 
	C268.706238,286.924957 266.398712,281.475372 264.091156,276.025818 
	C264.091156,276.025818 263.943970,275.623383 263.972595,275.026245 
	C263.275665,273.315155 262.550049,272.201233 261.824463,271.087311 
	C261.824463,271.087311 261.944061,271.049713 261.850067,270.887543 
	C261.636780,270.393738 261.413452,270.162781 261.086090,270.032532 
	C261.086090,270.032532 260.938080,269.620880 260.970093,269.024170 
	C261.009430,265.985962 261.016754,263.544434 261.024078,261.102936 
	C261.725922,261.119049 262.427734,261.135162 263.643433,261.460999 
	C265.458527,262.108612 266.759827,262.446564 268.061096,262.784515 
	C269.117004,262.832520 270.172882,262.880524 271.823059,263.130798 
	C273.286072,263.267029 274.154816,263.200989 275.023560,263.134979 
	C275.424988,263.147125 275.826447,263.159271 276.703918,263.471588 
	C279.790375,264.199707 282.400787,264.627625 285.011200,265.055573 
	C286.118042,265.325531 287.224915,265.595520 288.872375,266.121826 
	C289.965637,266.515839 290.518219,266.653503 291.070831,266.791168 
	C291.503204,266.823700 291.935547,266.856232 292.846680,267.088318 
	C293.888916,267.222260 294.452362,267.156708 295.015839,267.091125 
	C296.115356,267.345825 297.214844,267.600525 298.651733,267.878387 
	C299.766174,268.260590 300.543274,268.619629 301.651062,269.006653 
z"/>
<path fill="#A86AD6" opacity="1.000000" stroke="none" 
	d="
M130.004761,178.988266 
	C142.823120,181.832321 155.641479,184.676361 168.459412,187.943939 
	C163.648056,188.727173 158.446869,187.599930 155.332626,190.532318 
	C156.903687,194.245804 158.704849,196.836182 159.008041,199.591400 
	C159.526489,204.302429 158.984589,209.119888 159.108536,213.886902 
	C159.305679,221.470993 160.115784,229.068069 159.805557,236.624298 
	C159.647873,240.464767 159.539062,243.601471 162.994766,245.890717 
	C158.226334,244.664520 153.457916,243.438339 148.107239,241.859344 
	C146.970383,241.355087 146.415741,241.203644 145.861115,241.052200 
	C145.861115,241.052200 145.407944,240.998474 144.920837,240.736984 
	C143.568008,240.337570 142.702255,240.199661 141.836517,240.061737 
	C141.836517,240.061737 141.405533,240.026566 141.135803,239.703644 
	C140.221390,239.301376 139.576706,239.222031 138.932037,239.142670 
	C138.495010,239.101105 138.057968,239.059540 137.136200,238.775513 
	C136.406586,238.332565 136.137085,238.173935 135.842926,238.057190 
	C135.842926,238.057190 135.401596,238.014847 135.026306,237.776367 
	C134.403717,237.335800 134.131012,237.177505 133.832916,237.062988 
	C133.418823,237.047714 133.004745,237.032425 132.126312,236.781464 
	C131.418411,236.342026 131.147919,236.184540 130.850464,236.073334 
	C130.850464,236.073334 130.924271,236.070724 130.856232,235.771881 
	C128.602631,233.479828 126.193367,231.674683 124.306709,229.430222 
	C122.949066,227.815063 121.184128,225.397430 121.514542,223.713165 
	C122.723694,217.549805 120.160362,210.479446 125.612625,205.253494 
	C125.994965,204.886993 125.994423,203.972031 125.946274,203.329025 
	C125.571365,198.322601 122.984940,193.199875 126.872513,188.417343 
	C127.156197,188.068344 126.861656,187.091537 126.617035,186.496643 
	C125.084305,182.769119 126.669449,180.494705 130.004761,178.988266 
z"/>
<path fill="#A268CF" opacity="1.000000" stroke="none" 
	d="
M163.391693,245.963501 
	C159.539062,243.601471 159.647873,240.464767 159.805557,236.624298 
	C160.115784,229.068069 159.305679,221.470993 159.108536,213.886902 
	C158.984589,209.119888 159.526489,204.302429 159.008041,199.591400 
	C158.704849,196.836182 156.903687,194.245804 155.332626,190.532318 
	C158.446869,187.599930 163.648056,188.727173 168.733047,188.177856 
	C171.417068,188.655273 173.827011,189.322311 176.701141,190.318939 
	C177.809433,191.078110 178.453568,191.507721 179.097702,191.937317 
	C184.345749,194.058777 189.593796,196.180237 194.568390,198.710785 
	C193.507172,199.369476 192.725479,199.640625 191.930618,199.865097 
	C187.481628,201.121429 180.574692,200.377502 184.806763,208.662003 
	C182.790680,222.569168 184.682526,236.268784 186.999847,250.173920 
	C187.000305,250.402023 187.018021,250.857880 187.018021,250.857880 
	C186.560913,250.913712 186.103806,250.969543 185.157410,250.777039 
	C184.415649,250.344803 184.148331,250.185883 183.866165,250.051941 
	C177.173645,248.713379 170.481125,247.374832 163.391693,245.963501 
z"/>
<path fill="#9B63C6" opacity="1.000000" stroke="none" 
	d="
M225.152512,219.924576 
	C238.443619,229.898926 247.642593,243.173462 255.626617,258.105225 
	C254.611618,258.889099 253.441025,259.359772 252.307205,259.283569 
	C246.214859,258.874084 240.131653,258.328522 234.045303,257.829926 
	C231.947235,257.543762 229.849152,257.257568 227.039032,256.694550 
	C220.545517,255.295639 214.764038,254.173599 208.981171,252.641174 
	C208.005478,241.768814 207.031204,231.306824 206.200195,222.383133 
	C208.653503,219.798950 210.087524,218.288422 211.521545,216.777893 
	C209.912201,215.661270 208.302856,214.544662 205.482605,212.587875 
	C207.412354,212.077621 209.178741,210.973694 210.247192,211.446609 
	C213.544968,212.906219 216.574326,214.971176 219.712158,216.793716 
	C221.521393,217.844589 223.338791,218.881424 225.152512,219.924576 
z"/>
<path fill="#AB6CDA" opacity="1.000000" stroke="none" 
	d="
M129.702011,178.758270 
	C126.669449,180.494705 125.084305,182.769119 126.617035,186.496643 
	C126.861656,187.091537 127.156197,188.068344 126.872513,188.417343 
	C122.984940,193.199875 125.571365,198.322601 125.946274,203.329025 
	C125.994423,203.972031 125.994965,204.886993 125.612625,205.253494 
	C120.160362,210.479446 122.723694,217.549805 121.514542,223.713165 
	C121.184128,225.397430 122.949066,227.815063 124.306709,229.430222 
	C126.193367,231.674683 128.602631,233.479828 130.849518,235.808197 
	C124.762512,233.749023 118.588593,231.417618 112.477715,228.931274 
	C109.801956,227.842575 107.255005,226.437317 104.150101,224.851746 
	C103.406174,224.329041 103.137474,224.171814 102.844521,224.056046 
	C102.844521,224.056046 102.400352,224.010956 102.029968,223.770935 
	C101.419830,223.332748 101.155128,223.176971 100.865479,223.063583 
	C100.865479,223.063583 100.938049,223.052795 100.880745,222.733185 
	C99.752266,219.702682 96.462387,218.493195 97.186966,214.329315 
	C98.269577,208.107986 97.773476,201.624435 98.156143,195.264893 
	C98.463043,190.164505 98.158104,184.722397 99.950188,180.146957 
	C100.825417,177.912354 105.861275,177.307358 109.013908,175.964722 
	C115.809029,176.819244 122.604141,177.673767 129.702011,178.758270 
z"/>
<path fill="#9F65CA" opacity="1.000000" stroke="none" 
	d="
M225.051971,219.596634 
	C223.338791,218.881424 221.521393,217.844589 219.712158,216.793716 
	C216.574326,214.971176 213.544968,212.906219 210.247192,211.446609 
	C209.178741,210.973694 207.412354,212.077621 205.482605,212.587875 
	C208.302856,214.544662 209.912201,215.661270 211.521545,216.777893 
	C210.087524,218.288422 208.653503,219.798950 206.200195,222.383133 
	C207.031204,231.306824 208.005478,241.768814 208.685211,252.697769 
	C207.900116,253.495636 207.409546,253.826523 206.918991,254.157425 
	C206.478470,254.110657 206.037933,254.063889 205.065765,253.726868 
	C203.338089,253.327835 202.142075,253.219055 200.946045,253.110291 
	C200.200348,253.081635 199.454666,253.052979 198.257874,252.658752 
	C196.840576,252.253250 195.874374,252.213333 194.908157,252.173431 
	C194.469406,252.121353 194.030640,252.069290 192.980530,251.733551 
	C191.201218,251.315140 190.033234,251.180420 188.865265,251.045685 
	C188.865265,251.045685 188.398209,251.016418 188.046875,250.757233 
	C187.489243,250.281509 187.257187,250.097443 186.999390,249.945816 
	C184.682526,236.268784 182.790680,222.569168 184.806763,208.662003 
	C180.574692,200.377502 187.481628,201.121429 191.930618,199.865097 
	C192.725479,199.640625 193.507172,199.369476 194.681915,199.040665 
	C206.525818,203.529007 216.564713,210.183228 225.051971,219.596634 
z"/>
<path fill="#B371E6" opacity="1.000000" stroke="none" 
	d="
M41.013184,180.367188 
	C40.184269,178.776184 39.580479,177.277649 38.604061,176.083939 
	C37.036381,174.167343 34.914597,172.653107 33.580029,170.607941 
	C31.228914,167.004944 32.434032,164.809891 36.732052,165.090256 
	C41.996624,165.433655 47.225594,166.347351 52.464478,167.055023 
	C63.426487,168.535812 74.384895,170.043182 85.478889,172.061295 
	C79.090050,174.816422 76.828392,179.448456 77.979843,186.048248 
	C78.120537,186.854645 78.226646,187.800308 77.945992,188.525558 
	C76.006088,193.538696 79.469894,200.050598 73.768623,203.517410 
	C76.612984,206.514816 79.263092,209.307526 81.913208,212.100220 
	C75.494072,207.782150 68.817513,203.794861 62.726803,199.054779 
	C56.389736,194.122971 50.618496,188.464081 44.127548,182.820419 
	C43.413605,182.334625 43.155701,182.178360 42.881542,182.048935 
	C42.881542,182.048935 42.970516,182.040176 42.814743,181.876892 
	C42.394302,181.490585 42.129635,181.267548 41.864967,181.044510 
	C41.517624,181.041733 41.252995,180.892395 41.013184,180.367188 
z"/>
<path fill="#AF6EDF" opacity="1.000000" stroke="none" 
	d="
M81.927048,212.072861 
	C79.263092,209.307526 76.612984,206.514816 73.768623,203.517410 
	C79.469894,200.050598 76.006088,193.538696 77.945992,188.525558 
	C78.226646,187.800308 78.120537,186.854645 77.979843,186.048248 
	C76.828392,179.448456 79.090050,174.816422 85.805473,172.295151 
	C93.484955,173.152786 100.971954,174.298203 108.736435,175.704178 
	C105.861275,177.307358 100.825417,177.912354 99.950188,180.146957 
	C98.158104,184.722397 98.463043,190.164505 98.156143,195.264893 
	C97.773476,201.624435 98.269577,208.107986 97.186966,214.329315 
	C96.462387,218.493195 99.752266,219.702682 100.873260,222.769089 
	C98.827446,222.135849 96.731812,221.147064 94.145218,219.845901 
	C93.407509,219.333878 93.136810,219.175034 92.842178,219.056946 
	C92.396782,218.725372 91.951378,218.393799 91.079803,217.794250 
	C90.410362,217.330353 90.144783,217.171829 89.856903,217.050690 
	C89.856903,217.050690 89.404709,217.005676 89.031677,216.765381 
	C88.418892,216.331650 88.156448,216.176605 87.871315,216.059967 
	C87.871315,216.059967 87.943436,216.048370 87.854668,215.749420 
	C86.806107,214.991562 85.846321,214.532654 84.886528,214.073746 
	C84.886528,214.073746 84.961418,214.044189 84.864159,213.747192 
	C83.806801,212.991394 82.846703,212.532623 81.886597,212.073853 
	C81.886604,212.073837 81.940880,212.045502 81.927048,212.072861 
z"/>
<path fill="#AF6EDF" opacity="1.000000" stroke="none" 
	d="
M234.453094,257.913849 
	C240.131653,258.328522 246.214859,258.874084 252.307205,259.283569 
	C253.441025,259.359772 254.611618,258.889099 255.877686,258.340698 
	C257.513367,258.881378 259.036591,259.752075 260.791962,260.862854 
	C261.016754,263.544434 261.009430,265.985962 260.961670,268.805603 
	C260.583771,268.668304 260.108734,268.196381 259.929871,267.630798 
	C257.919189,261.271912 252.866165,260.290436 247.131775,259.932648 
	C243.017273,259.675903 238.949509,258.669647 234.453094,257.913849 
z"/>
<path fill="#B371E6" opacity="1.000000" stroke="none" 
	d="
M277.066040,313.452881 
	C277.835724,314.482544 278.868988,315.844177 279.211945,317.361847 
	C281.225067,326.271057 283.077026,335.216675 284.949768,344.573669 
	C284.916229,344.997345 284.557373,344.992279 284.377930,344.992798 
	C281.802551,334.614532 279.406616,324.235718 277.066040,313.452881 
z"/>
<path fill="#B371E6" opacity="1.000000" stroke="none" 
	d="
M207.140778,254.506622 
	C207.409546,253.826523 207.900116,253.495636 208.686630,253.108139 
	C214.764038,254.173599 220.545517,255.295639 226.631256,256.624420 
	C220.411194,256.172699 213.886887,255.514267 207.140778,254.506622 
z"/>
<path fill="#AF6EDF" opacity="1.000000" stroke="none" 
	d="
M264.039093,276.403320 
	C266.398712,281.475372 268.706238,286.924957 270.975830,292.786255 
	C268.620941,287.725586 266.303986,282.253204 264.039093,276.403320 
z"/>
<path fill="#B371E6" opacity="1.000000" stroke="none" 
	d="
M273.068298,300.427368 
	C274.417053,303.800751 275.722626,307.566315 276.980347,311.756287 
	C275.630035,308.393646 274.327576,304.606628 273.068298,300.427368 
z"/>
<path fill="#B371E6" opacity="1.000000" stroke="none" 
	d="
M195.067169,252.484833 
	C195.874374,252.213333 196.840576,252.253250 197.892410,252.582458 
	C197.060745,252.846588 196.143448,252.821411 195.067169,252.484833 
z"/>
<path fill="#B371E6" opacity="1.000000" stroke="none" 
	d="
M201.130615,253.428528 
	C202.142075,253.219055 203.338089,253.327835 204.742538,253.648087 
	C203.739029,253.821976 202.527100,253.784378 201.130615,253.428528 
z"/>
<path fill="#AF6EDF" opacity="1.000000" stroke="none" 
	d="
M261.896271,271.429230 
	C262.550049,272.201233 263.275665,273.315155 263.970215,274.812012 
	C263.282166,274.053650 262.625122,272.912415 261.896271,271.429230 
z"/>
<path fill="#B371E6" opacity="1.000000" stroke="none" 
	d="
M85.018066,214.374115 
	C85.846321,214.532654 86.806107,214.991562 87.846680,215.785065 
	C87.001511,215.637909 86.075562,215.156189 85.018066,214.374115 
z"/>
<path fill="#B371E6" opacity="1.000000" stroke="none" 
	d="
M82.018600,212.375076 
	C82.846703,212.532623 83.806801,212.991394 84.848976,213.784454 
	C84.004234,213.637939 83.077415,213.157120 82.018600,212.375076 
z"/>
<path fill="#B371E6" opacity="1.000000" stroke="none" 
	d="
M189.057861,251.367798 
	C190.033234,251.180420 191.201218,251.315140 192.658447,251.653168 
	C191.715302,251.800934 190.482880,251.745422 189.057861,251.367798 
z"/>
<path fill="#AB6CDA" opacity="1.000000" stroke="none" 
	d="
M139.067413,239.423126 
	C139.576706,239.222031 140.221390,239.301376 140.931152,239.633881 
	C140.398422,239.825882 139.800598,239.764740 139.067413,239.423126 
z"/>
<path fill="#AB6CDA" opacity="1.000000" stroke="none" 
	d="
M142.013489,240.372742 
	C142.702255,240.199661 143.568008,240.337570 144.702606,240.670410 
	C144.044464,240.804794 143.117462,240.744278 142.013489,240.372742 
z"/>
<path fill="#AB6CDA" opacity="1.000000" stroke="none" 
	d="
M145.994080,241.348755 
	C146.415741,241.203644 146.970383,241.355087 147.749207,241.691833 
	C147.357956,241.799881 146.742493,241.722595 145.994080,241.348755 
z"/>
<path fill="#AF6EDF" opacity="1.000000" stroke="none" 
	d="
M271.048279,294.360107 
	C271.377502,294.551392 271.656830,295.062408 271.937378,295.875641 
	C271.625153,295.678528 271.311768,295.179199 271.048279,294.360107 
z"/>
<path fill="#AF6EDF" opacity="1.000000" stroke="none" 
	d="
M272.054504,297.363770 
	C272.383911,297.556244 272.659058,298.068542 272.931519,298.881775 
	C272.619324,298.682983 272.309784,298.183289 272.054504,297.363770 
z"/>
<path fill="#B371E6" opacity="1.000000" stroke="none" 
	d="
M186.999847,250.173920 
	C187.257187,250.097443 187.489243,250.281509 187.826935,250.677338 
	C187.958328,250.856644 187.488297,250.959045 187.253159,250.908463 
	C187.018021,250.857880 187.000305,250.402023 186.999847,250.173920 
z"/>
<path fill="#AF6EDF" opacity="1.000000" stroke="none" 
	d="
M261.082642,270.306824 
	C261.413452,270.162781 261.636780,270.393738 261.866760,270.947968 
	C261.678009,270.974091 261.378601,270.777588 261.082642,270.306824 
z"/>
<path fill="#AB6CDA" opacity="1.000000" stroke="none" 
	d="
M130.944214,236.328156 
	C131.147919,236.184540 131.418411,236.342026 131.821960,236.718567 
	C131.667282,236.788544 131.352615,236.685760 130.944214,236.328156 
z"/>
<path fill="#BC77F0" opacity="1.000000" stroke="none" 
	d="
M42.973404,182.294769 
	C43.155701,182.178360 43.413605,182.334625 43.813179,182.679703 
	C43.669155,182.741333 43.367210,182.640976 42.973404,182.294769 
z"/>
<path fill="#BC77F0" opacity="1.000000" stroke="none" 
	d="
M41.966866,181.299011 
	C42.129635,181.267548 42.394302,181.490585 42.817570,181.921509 
	C42.673702,181.937439 42.371235,181.745483 41.966866,181.299011 
z"/>
<path fill="#AB6CDA" opacity="1.000000" stroke="none" 
	d="
M135.946045,238.304138 
	C136.137085,238.173935 136.406586,238.332565 136.814774,238.702423 
	C136.668457,238.764862 136.358810,238.657974 135.946045,238.304138 
z"/>
<path fill="#AB6CDA" opacity="1.000000" stroke="none" 
	d="
M133.934357,237.314941 
	C134.131012,237.177505 134.403717,237.335800 134.815002,237.709351 
	C134.664581,237.776184 134.350204,237.671524 133.934357,237.314941 
z"/>
<path fill="#AF6EDF" opacity="1.000000" stroke="none" 
	d="
M102.946213,224.304077 
	C103.137474,224.171814 103.406174,224.329041 103.814041,224.695450 
	C103.667610,224.759491 103.357758,224.655792 102.946213,224.304077 
z"/>
<path fill="#AF6EDF" opacity="1.000000" stroke="none" 
	d="
M100.960754,223.311707 
	C101.155128,223.176971 101.419830,223.332748 101.818985,223.698029 
	C101.670937,223.763367 101.363487,223.661591 100.960754,223.311707 
z"/>
<path fill="#B371E6" opacity="1.000000" stroke="none" 
	d="
M92.937515,219.312637 
	C93.136810,219.175034 93.407509,219.333878 93.815918,219.705505 
	C93.662651,219.774445 93.347748,219.671387 92.937515,219.312637 
z"/>
<path fill="#B371E6" opacity="1.000000" stroke="none" 
	d="
M89.952835,217.300735 
	C90.144783,217.171829 90.410362,217.330353 90.814545,217.694092 
	C90.666573,217.758224 90.357674,217.654510 89.952835,217.300735 
z"/>
<path fill="#B371E6" opacity="1.000000" stroke="none" 
	d="
M87.965675,216.306854 
	C88.156448,216.176605 88.418892,216.331650 88.817192,216.690399 
	C88.670509,216.755051 88.365273,216.654404 87.965675,216.306854 
z"/>
<path fill="#B371E6" opacity="1.000000" stroke="none" 
	d="
M183.953918,250.304504 
	C184.148331,250.185883 184.415649,250.344803 184.816757,250.708588 
	C184.657486,250.778000 184.349564,250.667526 183.953918,250.304504 
z"/>
<path fill="#AF6EDF" opacity="1.000000" stroke="none" 
	d="
M284.735535,264.806396 
	C282.400787,264.627625 279.790375,264.199707 277.005096,263.464600 
	C279.373444,263.624023 281.916626,264.090607 284.735535,264.806396 
z"/>
<path fill="#AF6EDF" opacity="1.000000" stroke="none" 
	d="
M267.911469,262.477112 
	C266.759827,262.446564 265.458527,262.108612 263.994446,261.462219 
	C265.141693,261.492401 266.451782,261.831055 267.911469,262.477112 
z"/>
<path fill="#AF6EDF" opacity="1.000000" stroke="none" 
	d="
M274.825806,262.912964 
	C274.154816,263.200989 273.286072,263.267029 272.219543,263.118958 
	C272.890564,262.833557 273.759308,262.762238 274.825806,262.912964 
z"/>
<path fill="#AF6EDF" opacity="1.000000" stroke="none" 
	d="
M290.993500,266.557434 
	C290.518219,266.653503 289.965637,266.515839 289.211609,266.166443 
	C289.645508,266.077698 290.280853,266.200714 290.993500,266.557434 
z"/>
<path fill="#AF6EDF" opacity="1.000000" stroke="none" 
	d="
M294.858337,266.905212 
	C294.452362,267.156708 293.888916,267.222260 293.171570,267.102112 
	C293.578766,266.850677 294.139801,266.784973 294.858337,266.905212 
z"/>
<path fill="#A86AD6" opacity="1.000000" stroke="none" 
	d="
M178.994095,191.650787 
	C178.453568,191.507721 177.809433,191.078110 177.077362,190.355347 
	C177.623093,190.496201 178.256790,190.930237 178.994095,191.650787 
z"/>
</svg>