<?xml version="1.0" standalone="no"?>
<!DOCTYPE svg PUBLIC "-//W3C//DTD SVG 20010904//EN"
 "http://www.w3.org/TR/2001/REC-SVG-20010904/DTD/svg10.dtd">
<svg version="1.0" xmlns="http://www.w3.org/2000/svg"
 width="300.000000pt" height="107.000000pt" viewBox="0 0 300.000000 107.000000"
 preserveAspectRatio="xMidYMid meet">
<metadata>
Created by potrace 1.10, written by Peter Selinger 2001-2011
</metadata>
<g transform="translate(0.000000,107.000000) scale(0.100000,-0.100000)"
fill="#3D348B" stroke="none">
<path d="M1200 823 c-968 -3 -1046 -4 -1058 -20 -9 -13 -12 -98 -12 -344 0
-327 0 -328 22 -343 20 -14 168 -16 1385 -16 1350 0 1363 0 1383 20 19 19 20
33 20 343 0 263 -3 327 -14 343 -17 22 96 21 -1726 17z m1695 -43 c10 -16 6
-623 -3 -632 -9 -9 -2699 -11 -2713 -2 -14 9 -12 617 3 632 16 16 2703 18
2713 2z"/>
<path d="M2478 725 c-2 -1 -29 -5 -60 -9 -91 -9 -159 -60 -198 -150 -25 -56
-28 -115 -10 -182 18 -64 98 -148 156 -163 55 -15 124 -19 130 -9 3 5 11 7 17
5 20 -7 103 40 131 74 48 57 60 89 60 169 1 84 -16 130 -65 179 -34 34 -89 75
-89 67 0 -4 -15 0 -34 8 -19 8 -36 13 -38 11z m60 -51 c125 -52 177 -195 114
-315 -42 -80 -94 -113 -186 -117 -58 -3 -81 0 -112 16 -130 67 -168 224 -83
342 56 77 178 111 267 74z"/>
<path d="M2386 655 c-102 -36 -159 -153 -125 -256 37 -111 161 -168 267 -123
179 74 164 332 -23 383 -51 14 -71 13 -119 -4z m139 -38 c61 -30 95 -90 95
-169 0 -45 -4 -53 -48 -97 -53 -53 -90 -67 -152 -56 -80 14 -152 118 -134 198
23 110 142 172 239 124z"/>
<path d="M2364 569 c-16 -17 -19 -37 -19 -111 0 -132 22 -142 157 -69 85 46
97 60 80 93 -12 23 -43 41 -141 87 -55 26 -54 26 -77 0z m116 -54 c50 -25 90
-49 90 -53 -1 -10 -165 -92 -185 -92 -12 0 -15 15 -15 88 0 78 4 102 17 102 2
0 44 -20 93 -45z"/>
<path d="M2400 465 l0 -65 65 32 c35 18 63 33 62 34 -1 1 -30 16 -64 33 l-63
31 0 -65z"/>
<path d="M460 550 c-11 -11 -20 -28 -21 -37 0 -10 -2 -37 -5 -61 -10 -75 39
-118 81 -72 23 26 31 25 67 -5 26 -22 36 -25 80 -20 28 4 58 11 68 17 10 7 25
8 36 3 11 -5 45 -9 76 -10 62 -2 80 9 92 56 8 36 40 74 54 65 7 -4 12 -26 12
-50 0 -60 45 -97 77 -65 9 9 20 9 42 -1 25 -10 34 -10 46 0 12 10 21 10 38 2
12 -6 48 -13 79 -15 47 -4 63 0 90 18 l33 22 34 -23 c29 -19 43 -22 94 -18 33
2 66 9 74 16 11 9 22 9 46 1 18 -7 82 -12 142 -12 61 0 125 -2 144 -4 21 -2
41 3 57 16 25 19 32 51 14 62 -11 7 -6 34 13 73 21 43 0 57 -91 60 -48 2 -91
-2 -103 -9 -15 -8 -24 -8 -32 0 -15 15 -60 14 -75 -1 -10 -10 -17 -10 -32 0
-27 16 -55 15 -70 -3 -16 -19 -46 -19 -54 0 -8 22 -82 19 -121 -5 -32 -20 -32
-20 -50 0 -15 17 -31 20 -95 20 -44 0 -81 -5 -88 -12 -8 -8 -15 -8 -26 1 -10
9 -41 11 -103 7 -48 -3 -95 -5 -103 -6 -8 0 -63 2 -123 4 l-107 4 -32 -39
c-36 -45 -48 -49 -48 -16 -1 45 -19 54 -108 55 -70 1 -86 -2 -102 -18z m172
-71 l-3 -65 34 4 c31 3 37 10 62 63 16 32 35 59 42 59 7 0 16 0 20 0 4 1 13
-23 19 -52 7 -29 15 -63 19 -75 6 -19 4 -23 -15 -23 -13 0 -24 8 -27 20 -3 13
-14 20 -28 20 -15 0 -26 -8 -30 -20 -5 -17 -15 -20 -71 -20 -72 0 -69 -7 -58
99 6 49 10 61 23 59 13 -3 15 -16 13 -69z m254 24 c11 -17 13 -16 23 10 6 15
12 27 15 27 2 0 11 3 20 6 25 10 18 -17 -14 -56 -20 -23 -30 -45 -30 -67 0
-27 -4 -33 -21 -33 -19 0 -20 4 -15 33 5 26 1 42 -19 71 -30 44 -30 43 -7 49
17 4 26 -4 48 -40z m282 9 c3 -26 8 -32 28 -32 20 0 24 5 24 29 0 33 16 49 32
33 6 -6 8 -36 3 -81 -6 -62 -10 -71 -27 -71 -16 0 -19 6 -16 32 3 29 0 32 -22
32 -21 1 -26 -5 -28 -32 -2 -24 -8 -32 -23 -32 -18 0 -19 5 -13 68 3 37 8 73
10 80 7 24 29 6 32 -26z m212 17 c0 -19 -4 -21 -30 -15 -25 5 -30 2 -30 -14 0
-13 7 -20 20 -20 11 0 20 -4 20 -10 0 -5 -9 -10 -19 -10 -11 0 -23 -9 -26 -21
-9 -27 -3 -32 29 -20 23 9 26 8 26 -9 0 -17 -7 -20 -50 -20 l-50 0 5 43 c15
113 12 106 58 110 23 2 43 4 45 5 1 1 2 -8 2 -19z m179 5 c2 -2 1 -11 -3 -20
-5 -13 -9 -15 -18 -6 -30 30 -68 1 -68 -50 0 -54 46 -64 56 -13 4 25 12 35 24
35 16 0 18 -6 13 -37 -7 -49 -14 -55 -58 -55 -63 0 -95 56 -64 113 19 36 92
56 118 33z m132 -62 c23 -85 23 -82 -2 -82 -12 0 -23 8 -26 20 -6 24 -53 28
-53 5 0 -8 -9 -19 -20 -25 -28 -15 -26 -1 15 79 31 62 51 86 64 74 3 -2 13
-34 22 -71z m85 70 c6 -4 15 -27 20 -52 l10 -45 18 47 c16 42 49 68 61 49 2
-4 1 -40 -2 -79 -5 -63 -8 -72 -26 -72 -18 0 -19 5 -14 48 l5 47 -21 -47 c-26
-60 -44 -61 -53 -3 -3 25 -11 45 -16 45 -7 0 -9 -18 -6 -45 5 -39 3 -45 -13
-45 -16 0 -18 6 -13 48 13 114 18 126 50 104z m232 -9 c-3 -13 -12 -17 -31
-16 -35 2 -39 -34 -4 -40 21 -3 21 -4 -5 -15 -18 -7 -28 -19 -28 -32 0 -23 0
-23 35 -10 23 9 26 8 23 -7 -2 -14 -15 -19 -52 -21 l-49 -3 6 38 c4 21 7 55 7
75 0 36 1 37 43 41 23 2 46 4 50 5 5 1 7 -6 5 -15z m-1440 -5 c7 -7 12 -20 12
-30 0 -26 -38 -61 -61 -55 -15 4 -19 0 -19 -24 0 -23 -4 -29 -21 -29 -19 0
-21 4 -15 38 3 20 6 54 6 75 l0 37 43 0 c24 0 48 -5 55 -12z m552 -4 c0 -11
-6 -15 -19 -11 -15 4 -20 -2 -25 -32 -3 -20 -6 -48 -6 -63 0 -22 -5 -28 -21
-28 -20 0 -21 3 -14 64 6 62 6 64 -14 59 -15 -4 -21 -1 -21 11 0 13 11 16 60
16 49 0 60 -3 60 -16z"/>
<path d="M508 490 c-3 -16 -1 -30 3 -30 14 0 31 30 25 45 -9 25 -23 17 -28
-15z"/>
</g>
</svg>
